<?xml version="1.0" standalone="no"?>
<!DOCTYPE svg PUBLIC "-//W3C//DTD SVG 20010904//EN"
 "http://www.w3.org/TR/2001/REC-SVG-20010904/DTD/svg10.dtd">
<svg version="1.0" xmlns="http://www.w3.org/2000/svg"
 width="3840.000000pt" height="3840.000000pt" viewBox="0 0 3840.000000 3840.000000"
 preserveAspectRatio="xMidYMid meet">
<metadata>
Created by potrace 1.11, written by Peter Selinger 2001-2013
</metadata>
<g transform="translate(0.000000,3840.000000) scale(0.100000,-0.100000)"
fill="#000000" stroke="none">
<path d="M21698 38345 c-2 -2 -55 -6 -118 -9 -63 -3 -126 -8 -140 -11 -14 -3
-44 -7 -66 -10 -23 -3 -75 -12 -115 -21 -41 -8 -86 -18 -101 -20 -45 -8 -265
-82 -342 -115 -281 -121 -521 -284 -736 -499 -298 -298 -504 -653 -609 -1052
-33 -123 -36 -138 -51 -243 -31 -210 -33 -544 -4 -690 6 -31 7 -38 19 -121 l7
-52 -121 0 c-111 0 -325 -10 -361 -17 -8 -1 -49 -6 -90 -10 -41 -4 -82 -9 -91
-10 -9 -2 -40 -6 -70 -10 -30 -3 -61 -8 -69 -10 -8 -2 -35 -7 -60 -10 -36 -5
-255 -48 -355 -70 -351 -77 -919 -268 -1290 -434 -22 -10 -69 -31 -105 -46
-191 -83 -658 -332 -876 -466 -38 -23 -78 -47 -89 -53 -38 -21 -350 -230 -363
-243 -8 -7 -23 -18 -35 -25 -54 -28 -380 -282 -562 -437 -254 -216 -587 -552
-784 -791 -35 -41 -71 -85 -81 -97 -16 -19 -146 -192 -219 -292 -65 -89 -251
-384 -251 -397 0 -3 -9 -19 -20 -34 -20 -28 -210 -403 -210 -414 0 -3 -14 -36
-31 -73 -17 -38 -32 -72 -34 -78 -1 -5 -6 -21 -12 -35 -25 -61 -75 -204 -107
-305 -19 -60 -56 -159 -81 -220 -65 -154 -219 -595 -209 -595 3 0 0 -8 -5 -18
-6 -11 -12 -30 -15 -43 -3 -13 -14 -55 -25 -94 -12 -38 -33 -117 -47 -175 -14
-58 -28 -112 -30 -120 -15 -62 -94 -466 -99 -510 -3 -30 -8 -62 -10 -70 -2 -8
-7 -39 -10 -69 -4 -30 -8 -61 -10 -70 -1 -9 -6 -43 -10 -76 -4 -33 -8 -73 -10
-90 -2 -16 -7 -66 -10 -110 -4 -44 -8 -96 -10 -115 -6 -57 -18 -378 -18 -475
0 -117 13 -456 18 -475 2 -8 6 -51 10 -95 3 -44 8 -91 10 -105 2 -14 6 -47 9
-75 4 -27 8 -61 11 -75 2 -14 7 -42 10 -62 10 -75 17 -113 20 -119 2 -3 -39
-45 -91 -93 -171 -159 -295 -324 -401 -532 -96 -189 -171 -441 -191 -644 -8
-88 -8 -310 1 -390 75 -693 529 -1285 1178 -1538 104 -41 258 -85 335 -96 22
-4 49 -8 61 -10 12 -3 53 -8 90 -11 37 -4 68 -8 69 -9 0 0 39 -75 86 -166 148
-288 324 -570 531 -850 55 -74 103 -137 106 -140 4 -3 31 -36 61 -75 107 -137
276 -323 454 -500 273 -273 445 -422 731 -634 258 -192 426 -302 658 -433 60
-35 68 -45 40 -55 -40 -15 -136 -88 -218 -165 -49 -46 -110 -103 -138 -128
-101 -90 -172 -163 -262 -271 -136 -161 -432 -539 -653 -833 -58 -77 -110
-145 -115 -151 -4 -5 -67 -89 -138 -185 -72 -96 -136 -182 -142 -190 -22 -27
-511 -693 -582 -792 -39 -53 -76 -97 -83 -97 -36 -2 -296 299 -419 485 -7 11
-47 68 -88 127 -41 60 -75 112 -75 117 0 4 -3 10 -7 12 -5 2 -34 38 -66 80
-67 88 -119 137 -142 134 -8 -1 -43 -45 -76 -96 -54 -84 -62 -92 -72 -75 -5
11 -13 22 -16 25 -4 3 -15 18 -24 33 -10 16 -25 36 -32 45 -13 16 -240 328
-513 707 -64 88 -132 183 -152 210 -63 85 -405 559 -414 573 -4 7 2 40 14 74
53 152 75 294 74 473 0 126 -15 282 -29 305 -2 4 -7 22 -10 41 -21 121 -113
329 -207 470 l-64 95 45 32 c139 96 280 292 330 457 7 22 15 47 18 55 8 19 10
28 18 69 3 19 8 37 10 40 8 15 19 155 19 256 0 171 -8 230 -60 458 -1 4 -2 8
-4 10 -1 1 -3 9 -5 17 -19 95 -130 347 -214 485 -398 656 -1058 1022 -1640
909 -30 -6 -177 -57 -187 -65 -7 -6 -33 15 -75 62 -35 40 -69 77 -74 83 -6 6
-39 43 -75 81 -35 39 -118 129 -185 200 -67 72 -134 144 -149 160 -36 39 -315
335 -530 560 -42 44 -76 83 -76 87 0 4 49 155 109 335 117 352 158 514 176
697 7 68 8 299 1 336 -3 14 -8 52 -11 85 -11 92 -13 102 -19 122 -3 10 -8 34
-10 53 -3 19 -12 67 -20 105 -8 39 -17 82 -20 95 -24 126 -93 398 -147 577
-39 132 -160 490 -178 528 -6 11 -39 92 -75 180 -39 95 -66 150 -66 135 -1
-14 -3 -32 -4 -40 -2 -8 -7 -55 -10 -105 -4 -49 -9 -101 -11 -115 -2 -14 -6
-65 -10 -115 -3 -49 -8 -101 -10 -115 -2 -14 -7 -65 -10 -115 -3 -49 -8 -103
-10 -120 -2 -16 -7 -65 -10 -107 -3 -43 -8 -97 -10 -120 -2 -24 -7 -77 -10
-118 -3 -41 -7 -91 -10 -110 -2 -19 -7 -73 -10 -120 -4 -47 -8 -101 -10 -120
-2 -19 -6 -71 -10 -115 -3 -44 -8 -100 -10 -125 -3 -25 -7 -83 -10 -130 -3
-47 -8 -96 -10 -110 -2 -14 -7 -65 -10 -115 -4 -49 -8 -106 -10 -125 -2 -19
-6 -75 -10 -125 -3 -49 -8 -101 -10 -115 -2 -14 -7 -70 -10 -125 -4 -55 -8
-111 -10 -125 -2 -14 -4 -45 -4 -70 l-1 -45 -116 120 c-105 109 -466 480 -717
739 -109 111 -663 677 -935 954 -111 114 -171 168 -166 152 68 -238 255 -747
349 -955 13 -27 40 -88 60 -135 48 -109 203 -419 244 -488 17 -29 31 -55 31
-57 0 -7 122 -209 188 -310 92 -141 217 -308 321 -428 118 -135 205 -218 406
-385 11 -10 73 -61 138 -116 l118 -98 -6 -72 c-3 -39 -7 -93 -9 -121 -3 -27
-7 -97 -11 -155 -3 -58 -8 -125 -10 -150 -2 -25 -6 -97 -10 -160 -3 -63 -8
-135 -10 -160 -8 -91 -21 -359 -25 -487 -2 -58 -6 -83 -15 -83 -7 0 -39 -9
-71 -19 -271 -88 -499 -299 -654 -605 -70 -140 -138 -333 -156 -444 -7 -44
-14 -85 -19 -111 -22 -115 -26 -461 -6 -591 18 -122 22 -141 42 -230 117 -506
442 -944 817 -1101 67 -28 107 -40 221 -65 37 -8 200 -8 256 0 122 18 254 69
368 142 37 24 69 44 72 44 2 0 4 -28 4 -62 0 -35 3 -74 5 -88 2 -14 7 -47 11
-75 17 -129 69 -293 137 -430 35 -69 112 -200 128 -215 3 -3 23 -27 45 -55
169 -211 424 -388 673 -467 l74 -23 167 -230 c92 -126 178 -246 191 -265 13
-19 27 -37 30 -40 5 -4 367 -504 441 -608 46 -65 438 -607 446 -617 5 -5 42
-57 83 -114 41 -56 93 -128 116 -160 l41 -56 -33 -65 c-54 -105 -63 -146 -56
-247 5 -65 595 -865 825 -1118 10 -11 28 -33 40 -48 12 -15 33 -40 47 -55 14
-15 57 -63 95 -107 240 -270 563 -584 729 -709 28 -21 53 -41 56 -45 7 -11
146 -103 220 -148 62 -37 79 -46 180 -91 211 -94 408 -58 740 138 145 86 429
289 525 377 11 10 52 44 92 76 39 32 73 61 75 65 2 4 17 18 33 30 49 38 228
206 397 370 86 85 160 152 164 150 6 -3 6 -93 -1 -163 -9 -94 -17 -162 -20
-175 -2 -8 -6 -40 -10 -71 -3 -31 -8 -67 -10 -80 -3 -13 -7 -41 -10 -64 -9
-58 -15 -96 -20 -125 -2 -14 -7 -52 -11 -85 -3 -33 -8 -63 -11 -67 -2 -5 -19
-8 -36 -8 -37 0 -97 -34 -125 -70 -31 -39 -75 -131 -136 -284 -89 -220 -101
-287 -67 -354 21 -41 59 -73 116 -96 l37 -16 -7 -67 c-4 -37 -8 -70 -10 -73
-1 -3 -5 -32 -9 -65 -3 -33 -8 -71 -10 -85 -7 -36 -12 -72 -41 -285 -14 -104
-28 -206 -31 -225 -12 -83 -24 -173 -29 -213 -3 -23 -7 -51 -9 -63 -2 -12 -7
-45 -11 -75 -4 -30 -8 -56 -10 -59 -2 -3 -6 -33 -10 -67 -3 -34 -7 -70 -9 -80
-7 -37 -21 -132 -31 -203 -3 -25 -8 -56 -10 -70 -3 -14 -7 -38 -9 -55 -2 -16
-9 -61 -15 -100 -6 -38 -13 -86 -15 -105 -3 -19 -12 -78 -20 -130 -8 -52 -18
-113 -21 -135 -3 -23 -7 -50 -9 -60 -6 -31 -16 -97 -21 -130 -2 -16 -6 -48
-10 -70 -4 -22 -15 -96 -26 -165 -25 -162 -29 -182 -34 -200 -2 -8 -6 -35 -9
-60 -3 -25 -8 -56 -11 -70 -3 -14 -7 -43 -10 -65 -5 -36 -17 -111 -29 -171 -2
-12 -7 -39 -11 -60 -10 -67 -15 -96 -36 -212 -11 -62 -22 -125 -24 -140 -2
-15 -8 -47 -13 -72 -6 -25 -14 -65 -17 -90 -4 -25 -11 -67 -17 -95 -5 -27 -12
-63 -15 -80 -2 -16 -20 -106 -38 -200 -19 -93 -37 -182 -40 -197 -3 -16 -7
-40 -10 -55 -3 -16 -7 -37 -9 -48 -2 -11 -20 -92 -40 -180 -20 -89 -38 -170
-40 -180 -2 -11 -16 -67 -31 -124 -14 -57 -22 -107 -18 -112 21 -20 342 -98
533 -128 36 -6 74 -13 85 -15 11 -2 40 -7 65 -10 25 -3 54 -8 65 -10 25 -4 93
-14 160 -22 28 -3 61 -7 75 -9 14 -2 52 -7 85 -10 33 -3 71 -8 85 -10 14 -2
57 -7 95 -11 39 -3 81 -8 95 -9 14 -2 61 -7 105 -10 44 -4 91 -9 105 -11 14
-1 32 -3 41 -3 15 -1 17 -30 18 -303 1 -167 4 -764 7 -1328 3 -564 7 -1220 8
-1457 l2 -433 -32 0 -31 0 1 -682 1 -683 408 -3 407 -2 1 -38 c0 -20 2 -44 3
-52 3 -13 8 -86 22 -335 12 -197 6 -629 -10 -745 -2 -14 -7 -54 -11 -90 -4
-36 -8 -67 -10 -70 -2 -3 -6 -26 -10 -50 -10 -74 -53 -227 -76 -272 -35 -69
-95 -153 -226 -318 -68 -85 -127 -159 -131 -165 -4 -5 -28 -39 -54 -75 -61
-86 -150 -177 -219 -223 -51 -33 -57 -42 -62 -79 -4 -27 -2 -45 6 -50 6 -4 9
-8 7 -10 -296 -209 -840 -657 -1005 -829 -242 -251 -343 -483 -275 -625 37
-76 81 -108 370 -273 149 -85 325 -126 640 -148 201 -15 848 -7 1040 12 25 2
81 7 125 10 84 6 150 12 225 20 25 3 68 7 95 10 46 5 89 11 155 20 14 2 45 7
70 10 86 12 286 55 395 85 61 17 117 33 125 35 8 2 16 4 18 5 1 2 5 3 10 4 24
5 167 64 225 93 203 101 284 186 387 408 71 150 128 342 145 480 3 28 8 66 10
85 5 39 5 298 0 345 -3 30 -6 47 -25 153 -41 230 -155 458 -315 630 -24 27
-40 54 -41 70 -2 36 -14 152 -19 183 -10 60 -14 92 -30 244 -6 51 -5 734 0
970 3 99 7 263 9 365 3 102 5 191 5 198 1 9 100 12 460 12 l458 0 0 685 0 685
-54 0 -55 0 7 77 c4 43 8 89 10 103 3 21 8 65 20 190 2 14 6 61 10 105 4 44 9
87 10 95 1 8 6 49 10 90 3 41 8 86 10 100 2 14 7 59 10 100 4 41 8 89 11 105
2 17 6 59 9 95 3 36 8 80 10 99 3 18 8 63 10 100 3 36 7 80 9 96 3 17 7 62 11
100 4 39 8 81 10 95 2 14 7 57 10 95 3 39 8 84 10 100 2 17 6 62 10 100 3 39
8 84 10 100 2 17 6 62 10 100 3 39 8 86 10 105 3 19 7 62 11 95 3 33 7 71 9
85 2 14 7 66 10 115 4 50 9 93 10 96 2 3 7 41 10 85 3 43 8 90 10 104 2 14 7
61 11 105 3 44 8 89 10 100 2 11 6 49 9 85 9 112 15 169 31 303 3 28 6 57 7
63 0 6 13 11 28 12 32 1 30 5 49 -143 6 -45 13 -97 15 -118 3 -20 7 -54 10
-74 19 -151 26 -202 31 -233 6 -38 8 -53 19 -145 3 -33 8 -67 10 -75 2 -8 7
-40 10 -70 3 -30 8 -66 10 -80 2 -14 9 -65 15 -115 6 -49 13 -101 16 -115 2
-14 13 -97 24 -185 12 -88 23 -167 25 -175 2 -8 7 -42 10 -75 3 -33 11 -91 16
-130 6 -38 12 -84 14 -102 4 -36 13 -101 21 -153 6 -48 13 -97 19 -150 3 -25
8 -56 10 -70 3 -14 7 -47 10 -75 6 -48 8 -65 20 -152 8 -53 14 -102 20 -143 2
-19 6 -51 9 -70 3 -19 10 -73 16 -120 6 -47 13 -96 15 -110 2 -14 7 -49 10
-79 4 -30 8 -61 10 -70 1 -9 6 -45 10 -81 3 -36 8 -72 10 -80 4 -14 15 -98 20
-145 2 -24 18 -137 21 -147 1 -5 2 -296 3 -648 l1 -640 85 0 c69 0 85 -3 85
-15 0 -15 36 -16 333 0 26 1 47 -1 48 -4 2 -10 7 -90 14 -221 3 -69 8 -152 9
-185 2 -33 7 -127 11 -210 4 -82 9 -170 10 -195 15 -236 22 -721 12 -820 -4
-36 -10 -94 -13 -130 -3 -36 -7 -74 -9 -85 -2 -11 -4 -49 -5 -85 0 -61 -3 -67
-41 -109 -134 -147 -240 -362 -283 -576 -8 -44 -18 -93 -22 -110 -3 -16 -7
-111 -9 -210 -3 -165 2 -230 29 -375 32 -171 127 -407 228 -567 103 -164 292
-271 648 -370 30 -8 64 -17 75 -19 198 -43 333 -64 504 -79 20 -2 65 -6 101
-9 278 -25 410 -30 810 -30 332 -1 576 6 651 19 13 2 51 6 84 9 66 6 102 11
155 21 19 4 44 8 55 9 11 2 29 6 40 9 11 3 34 9 51 12 102 17 199 63 429 203
110 67 200 156 215 214 32 115 -28 275 -169 452 -66 82 -259 264 -377 356 -62
48 -249 195 -285 224 -34 28 -279 205 -386 280 -69 48 -110 83 -106 90 8 12 4
65 -5 83 -4 6 -33 28 -64 50 -83 56 -173 146 -258 259 -62 83 -144 182 -210
254 -73 79 -170 218 -190 270 -7 19 -17 40 -21 45 -7 10 -56 198 -64 249 -3
14 -9 52 -14 84 -6 31 -13 82 -16 112 -4 30 -8 69 -10 85 -17 128 -23 589 -12
845 3 63 6 127 6 142 l1 28 593 2 592 3 1 683 1 682 -94 0 c-51 0 -94 3 -94 8
-1 4 -3 52 -4 107 -8 289 -17 618 -20 755 -2 85 -6 261 -10 390 -3 129 -8 314
-10 410 -3 96 -7 272 -10 390 -3 118 -8 298 -10 400 -3 102 -7 277 -10 390 -2
113 -7 293 -10 401 -4 153 -2 196 7 196 16 0 225 13 293 17 28 2 102 7 165 11
63 3 126 8 140 10 14 2 61 6 105 9 75 6 133 11 215 21 19 3 60 7 90 10 30 3
71 7 90 10 19 3 55 7 80 10 439 53 802 151 825 224 3 10 -17 77 -44 150 -28
72 -73 204 -102 294 -28 89 -58 182 -66 207 -8 25 -16 52 -18 60 -2 8 -15 53
-28 100 -14 47 -41 146 -62 220 -20 74 -41 149 -45 165 -11 34 -140 540 -146
570 -4 23 -4 23 -39 165 -45 185 -233 1005 -251 1095 -2 11 -11 52 -19 90 -22
102 -76 356 -81 385 -3 14 -16 75 -29 135 -21 100 -99 474 -110 535 -7 34 -12
60 -19 90 -3 14 -8 36 -10 50 -3 14 -14 72 -26 130 -11 58 -23 116 -26 130 -3
14 -21 108 -40 210 -20 102 -38 194 -40 205 -17 83 -18 81 30 99 49 19 82 56
87 96 3 29 -10 97 -23 123 -16 31 -1 18 84 -71 151 -159 483 -491 496 -496 14
-6 230 124 307 186 6 4 44 33 85 64 41 31 82 64 91 73 9 9 36 34 60 56 135
124 188 257 136 336 -35 53 -172 98 -407 134 -25 4 -52 9 -60 10 -8 2 -44 6
-80 10 -36 4 -74 9 -85 11 -11 2 -44 5 -72 6 -29 1 -53 5 -53 9 0 4 89 8 198
9 271 3 264 2 271 23 9 24 6 336 -3 371 -3 14 -4 26 -1 26 3 0 42 -24 88 -53
267 -174 523 -297 668 -322 18 -3 37 -9 42 -12 12 -7 120 -6 165 2 222 39 542
270 884 636 441 473 965 1189 1319 1804 17 30 23 56 24 105 0 57 -5 77 -43
152 -23 48 -47 90 -52 93 -15 9 -13 17 18 66 16 24 82 127 147 229 65 102 133
208 150 235 18 28 155 241 304 475 149 234 275 432 281 440 36 54 214 331 230
360 11 19 42 69 69 110 27 41 77 119 112 174 54 87 67 101 108 118 376 158
625 381 795 714 145 284 196 645 132 944 -21 99 -24 108 -52 194 -116 355
-390 669 -729 836 -111 55 -235 102 -295 113 -14 3 -43 10 -65 15 -61 16 -100
21 -215 28 -58 4 -106 8 -108 9 -2 2 4 43 13 92 9 48 19 99 21 113 3 14 11 57
19 95 8 39 37 189 65 335 28 146 57 297 65 335 8 39 17 86 20 105 12 72 7 69
88 54 40 -8 86 -17 102 -20 17 -3 48 -9 70 -14 22 -5 56 -12 75 -15 19 -3 67
-12 107 -20 39 -8 89 -18 110 -21 21 -3 40 -7 43 -9 3 -2 24 -6 46 -9 22 -4
51 -9 64 -11 102 -22 129 -27 155 -31 58 -10 241 -45 280 -54 40 -9 167 -34
235 -45 19 -3 53 -10 75 -15 70 -16 108 -12 157 19 31 20 49 40 57 63 21 67
14 126 -21 169 -33 40 -70 52 -288 92 -14 3 -77 15 -140 26 -63 12 -135 26
-160 31 -47 11 -61 14 -150 30 -71 13 -99 18 -130 25 -14 3 -36 7 -50 10 -14
3 -50 10 -80 15 -30 6 -89 17 -130 25 -88 17 -104 20 -235 46 -55 10 -111 21
-125 24 -81 15 -81 16 -76 43 16 82 40 197 41 199 1 2 35 -4 76 -11 41 -8 86
-17 101 -20 15 -2 63 -12 105 -20 43 -9 89 -17 103 -20 14 -2 84 -15 155 -29
72 -14 144 -28 160 -31 17 -3 89 -17 160 -31 72 -15 139 -28 150 -29 11 -2 29
-6 40 -9 11 -3 40 -9 65 -12 25 -3 72 -12 105 -20 33 -7 76 -16 95 -19 19 -3
60 -10 90 -16 110 -21 119 -21 163 -2 98 44 125 183 50 254 -36 33 -59 45
-106 52 -38 6 -391 74 -527 102 -41 8 -86 17 -100 19 -24 4 -188 35 -280 54
-25 5 -61 12 -80 15 -19 3 -46 8 -60 11 -14 3 -41 8 -60 11 -19 3 -43 7 -52
10 -10 3 -30 7 -45 10 -77 14 -239 47 -245 50 -3 2 -2 19 2 37 9 32 15 66 27
140 3 21 12 41 19 44 7 2 106 -14 221 -36 114 -22 224 -43 243 -46 19 -3 42
-8 50 -10 13 -4 148 -30 260 -51 43 -8 232 -45 300 -59 36 -7 81 -16 100 -19
19 -3 94 -17 165 -32 134 -27 178 -30 219 -14 109 41 132 185 43 268 -20 19
-60 31 -194 57 -92 18 -181 36 -198 39 -16 2 -77 14 -135 26 -105 20 -129 25
-185 36 -16 3 -74 14 -128 25 -53 10 -110 21 -125 24 -26 5 -50 9 -102 20 -14
2 -41 7 -60 10 -19 3 -42 8 -50 10 -8 2 -28 7 -45 10 -16 2 -41 7 -55 10 -14
2 -77 14 -140 26 -63 12 -118 25 -123 29 -4 3 -1 40 8 81 17 82 23 119 24 135
1 12 15 12 91 -4 30 -6 66 -13 80 -16 14 -2 59 -11 100 -19 41 -9 89 -18 105
-21 17 -3 91 -17 165 -31 74 -15 146 -28 160 -31 14 -2 68 -13 120 -24 52 -11
110 -22 128 -25 17 -3 47 -7 65 -10 17 -3 39 -8 47 -10 8 -2 29 -7 45 -10 17
-2 41 -7 55 -10 35 -7 130 -25 160 -31 14 -2 60 -11 102 -20 43 -8 94 -13 115
-9 82 13 140 92 129 174 -11 80 -66 128 -168 145 -36 6 -46 8 -163 32 -44 9
-89 18 -100 19 -11 2 -67 12 -125 23 -58 12 -121 24 -140 27 -19 3 -53 10 -75
15 -47 11 -236 47 -282 53 -17 3 -36 7 -40 10 -5 3 -29 8 -53 12 -25 3 -76 12
-115 20 -38 8 -83 16 -100 19 -16 3 -55 10 -85 16 -30 6 -66 13 -80 16 -74 13
-72 12 -67 57 7 50 25 145 33 170 6 19 0 19 164 -13 55 -11 114 -22 130 -25
16 -3 75 -14 130 -25 55 -11 115 -22 132 -25 17 -3 97 -19 177 -35 80 -15 160
-31 176 -34 17 -2 66 -12 110 -21 44 -9 91 -18 105 -20 14 -2 36 -7 50 -10 14
-3 41 -8 60 -11 19 -3 51 -9 70 -14 19 -5 52 -11 72 -14 21 -3 55 -9 75 -14
21 -4 45 -7 53 -6 8 0 27 2 42 2 32 2 83 43 105 86 31 61 8 157 -48 196 -23
17 -160 53 -249 65 -14 2 -81 15 -150 29 -69 13 -138 27 -155 30 -16 2 -61 11
-100 19 -38 9 -86 18 -105 21 -19 3 -46 8 -60 11 -14 2 -47 9 -75 15 -27 5
-61 12 -75 15 -62 12 -375 73 -420 81 -19 3 -39 7 -45 8 -5 2 -32 6 -58 11
-53 8 -53 5 -28 117 6 24 13 59 16 78 3 19 8 36 11 39 4 5 24 1 309 -55 94
-18 186 -36 205 -39 19 -3 53 -10 75 -15 22 -5 60 -12 85 -15 24 -4 48 -8 51
-11 4 -2 24 -6 45 -9 22 -4 46 -8 54 -10 8 -2 31 -7 50 -10 19 -3 46 -8 60
-10 14 -3 36 -7 50 -10 14 -3 36 -7 50 -10 57 -12 76 -16 100 -19 14 -2 59
-11 100 -20 41 -8 91 -18 110 -21 19 -3 42 -8 51 -11 61 -18 140 -19 173 -3
87 46 118 147 69 231 -30 51 -78 69 -277 104 -17 3 -85 16 -151 29 -118 23
-391 76 -470 91 -22 4 -44 8 -50 9 -13 3 -123 25 -155 31 -14 2 -47 9 -75 15
-56 11 -294 57 -340 65 -67 11 -64 5 -43 107 27 137 27 137 41 132 6 -2 26 -6
42 -8 17 -3 41 -8 55 -11 14 -3 36 -8 50 -10 44 -7 300 -56 450 -86 80 -16
217 -43 305 -59 88 -17 171 -34 185 -36 14 -3 59 -12 100 -19 41 -8 127 -24
192 -37 98 -19 122 -21 156 -11 126 38 156 206 48 280 -28 19 -106 40 -206 56
-19 3 -105 19 -190 36 -85 17 -168 34 -185 36 -16 3 -84 16 -150 29 -66 13
-145 29 -175 35 -30 5 -75 14 -100 19 -25 5 -65 12 -90 16 -24 4 -47 8 -50 10
-3 2 -23 6 -45 9 -22 3 -51 8 -65 11 -14 3 -34 7 -45 9 -132 26 -229 47 -232
50 -3 2 3 37 11 77 8 41 18 90 21 109 3 19 7 36 9 37 2 2 50 -6 107 -17 57
-12 120 -23 139 -26 19 -3 53 -9 75 -14 22 -5 56 -12 75 -15 35 -6 197 -38
385 -75 55 -11 112 -22 127 -24 15 -3 63 -12 105 -20 43 -9 89 -18 103 -20 14
-3 50 -10 80 -16 30 -6 71 -13 90 -16 19 -3 71 -14 115 -23 44 -10 98 -16 119
-15 88 8 152 84 142 172 -10 90 -62 130 -202 156 -54 10 -178 34 -274 53 -96
19 -186 36 -200 38 -14 2 -70 13 -125 24 -55 11 -127 25 -160 31 -93 18 -105
20 -180 35 -38 8 -86 17 -105 20 -80 14 -345 67 -351 71 -3 2 0 31 7 66 7 35
16 77 18 94 8 46 17 64 31 64 7 0 91 -15 187 -34 95 -19 184 -37 198 -39 127
-24 118 -22 210 -40 72 -15 154 -29 165 -28 2 0 19 -5 37 -10 18 -5 47 -12 63
-14 54 -9 348 -66 415 -80 36 -8 84 -17 108 -20 24 -3 53 -10 64 -14 29 -10
101 2 133 23 90 59 87 209 -5 265 -17 10 -95 30 -173 45 -78 15 -173 34 -212
41 -79 16 -130 26 -160 30 -11 2 -87 17 -170 34 -82 16 -166 33 -185 36 -19 3
-66 12 -105 20 -38 8 -81 16 -95 19 -14 3 -50 10 -80 16 -30 6 -71 13 -90 16
-19 3 -43 7 -52 10 -20 6 -50 12 -98 19 -91 15 -105 20 -104 43 0 12 -1 22 -3
22 -2 0 -36 7 -76 15 -40 8 -83 16 -97 19 -28 5 -381 73 -420 81 -14 3 -50 9
-80 15 -30 6 -65 12 -76 14 -19 4 -23 -2 -30 -42 -4 -26 -8 -51 -10 -57 -1 -5
-5 -28 -9 -50 -4 -22 -10 -58 -15 -80 -5 -22 -11 -53 -14 -70 -3 -16 -8 -39
-10 -50 -9 -47 -99 -509 -141 -730 -25 -132 -50 -260 -55 -285 -5 -25 -12 -58
-15 -75 -3 -16 -10 -52 -15 -80 -5 -27 -12 -63 -15 -80 -3 -16 -10 -50 -15
-75 -9 -42 -46 -235 -56 -290 -2 -14 -9 -47 -15 -75 -5 -27 -12 -66 -15 -85
-3 -19 -9 -51 -14 -70 -5 -19 -11 -51 -14 -70 -3 -19 -8 -46 -11 -60 -11 -58
-25 -127 -29 -150 -3 -14 -21 -106 -40 -205 -43 -219 -48 -245 -70 -365 -3
-14 -9 -47 -15 -75 -19 -92 -72 -370 -76 -395 -2 -14 -24 -127 -49 -252 -24
-125 -47 -242 -50 -260 -3 -18 -8 -44 -11 -58 -3 -14 -7 -36 -10 -50 -3 -14
-7 -34 -9 -45 -10 -48 -48 -242 -52 -265 -5 -30 -16 -91 -19 -105 -8 -32 -65
-337 -71 -370 -3 -22 -8 -43 -9 -46 -2 -3 -7 -28 -11 -55 -3 -27 -8 -52 -10
-56 -4 -6 -27 -122 -39 -198 -3 -19 -8 -42 -10 -50 -2 -8 -7 -31 -10 -50 -3
-19 -26 -136 -50 -260 -24 -124 -47 -238 -49 -254 -3 -16 -10 -52 -16 -80 -14
-68 -22 -111 -35 -186 -23 -126 -26 -134 -70 -168 -44 -34 -119 -106 -188
-181 -80 -87 -185 -260 -250 -411 -17 -39 -62 -188 -71 -235 -4 -16 -9 -41
-11 -55 -20 -100 -26 -314 -12 -441 9 -86 57 -277 91 -358 14 -36 26 -68 26
-73 0 -4 -27 -49 -59 -100 -33 -51 -85 -133 -117 -183 -31 -49 -85 -132 -118
-184 -34 -52 -90 -141 -126 -198 -36 -56 -107 -169 -159 -250 -52 -82 -135
-211 -184 -288 -49 -77 -108 -169 -132 -205 -23 -36 -66 -103 -95 -150 -30
-47 -61 -93 -70 -103 -16 -17 -18 -16 -42 20 -14 21 -44 62 -67 91 l-43 53
-26 -17 c-15 -10 -35 -27 -45 -38 -30 -36 -147 -214 -147 -225 0 -6 -4 -11
-10 -11 -5 0 -10 -4 -10 -9 0 -22 -264 -436 -345 -541 -50 -66 -152 -170 -165
-170 -5 0 -15 8 -22 18 -7 11 -30 39 -50 63 -88 106 -296 358 -328 398 -19 24
-40 48 -45 55 -6 6 -102 121 -215 256 -112 135 -206 247 -210 250 -3 3 -41 48
-85 100 -92 109 -426 500 -466 545 -15 17 -66 75 -114 130 -225 256 -448 488
-520 541 -22 16 -45 34 -51 39 -6 6 -28 24 -49 40 -21 17 -45 37 -54 45 -29
28 -115 96 -166 131 -61 43 -116 69 -172 84 l-43 11 183 121 c220 146 513 364
605 450 7 7 34 29 59 50 26 21 58 49 72 63 15 14 49 45 76 69 77 67 304 292
386 383 41 45 85 93 99 107 25 26 178 210 256 306 156 194 411 575 534 800 76
137 147 273 166 312 15 33 25 43 44 43 14 1 34 3 45 5 11 2 45 6 75 10 250 32
563 150 765 290 332 230 557 506 701 862 35 88 98 312 108 388 22 159 27 381
12 515 -34 306 -163 634 -351 892 -60 82 -247 279 -318 335 l-39 31 32 103
c17 57 42 142 55 189 14 47 31 105 40 130 25 74 130 504 164 665 37 183 69
371 86 505 4 30 9 63 11 72 1 9 5 50 8 90 4 40 8 83 11 96 5 28 18 312 18 402
0 74 -13 312 -18 320 -1 3 -6 32 -10 65 -17 150 -72 408 -131 615 -26 90 -114
355 -135 405 -7 17 -13 35 -15 40 -1 6 -32 82 -69 170 -84 201 -248 536 -355
725 -46 80 -89 156 -97 170 -41 74 -203 322 -300 458 -262 368 -513 653 -878
997 -418 395 -929 771 -1457 1074 -88 51 -125 77 -121 87 3 8 9 14 14 14 5 0
9 4 9 9 0 5 17 35 39 67 182 276 316 670 348 1023 11 123 8 402 -6 507 -29
208 -88 438 -147 571 -8 17 -14 34 -14 37 0 9 -106 225 -136 276 -181 311
-454 595 -766 798 -183 118 -478 247 -673 292 -183 42 -279 57 -440 66 -55 3
-115 7 -132 8 -18 2 -34 2 -35 1z m-12766 -13277 c14 -13 46 -39 69 -58 24
-19 64 -52 89 -74 25 -21 54 -45 65 -55 11 -9 63 -52 115 -96 52 -44 104 -87
115 -97 46 -38 241 -201 248 -207 4 -4 -2 -26 -13 -49 -23 -48 -76 -203 -84
-247 -3 -16 -8 -50 -12 -75 -3 -25 -7 -56 -10 -70 -7 -39 -6 -249 1 -305 31
-247 97 -462 209 -680 70 -137 199 -328 284 -423 12 -14 22 -28 22 -32 0 -3
-19 -14 -42 -24 -89 -37 -186 -91 -273 -151 l-90 -62 5 71 c10 130 3 260 -25
461 -13 94 -49 237 -87 350 -137 397 -395 720 -698 875 -37 19 -41 24 -35 47
28 114 20 480 -21 921 -7 70 -8 88 -5 110 1 11 57 -31 173 -130z m1686 -713
c204 -48 373 -146 548 -320 190 -189 325 -419 390 -665 90 -342 14 -647 -196
-787 -25 -17 -61 -36 -81 -43 -34 -12 -42 -11 -130 27 -168 72 -321 109 -494
120 -96 5 -102 7 -150 44 -56 42 -177 163 -226 224 -121 153 -247 395 -274
525 -2 8 -4 16 -5 18 -3 3 -3 2 -20 87 -20 97 -17 313 4 385 9 30 18 60 19 65
11 44 72 140 122 191 62 63 136 106 222 129 63 16 199 16 271 0z m-2023 -708
c139 -35 265 -129 381 -282 79 -105 167 -296 195 -422 40 -183 41 -191 44
-358 2 -130 -8 -243 -28 -330 -96 -409 -332 -659 -622 -659 -179 0 -389 141
-523 349 -29 46 -112 225 -132 285 -96 296 -94 665 7 935 96 258 256 428 453
482 42 11 180 11 225 0z m15241 -6792 c81 -77 154 -147 163 -156 73 -73 410
-372 594 -527 75 -63 137 -118 137 -121 -1 -3 -42 -33 -91 -65 -147 -96 -377
-282 -516 -418 -70 -69 -71 -69 -100 -55 -29 15 -81 14 -141 -3 -20 -5 -37 -8
-38 -7 -2 1 -6 29 -9 62 -3 33 -8 71 -10 85 -2 14 -7 54 -10 90 -4 36 -8 79
-10 95 -3 26 -6 56 -20 180 -2 17 -6 55 -10 85 -3 30 -8 73 -10 95 -1 22 -10
101 -19 175 -8 74 -18 162 -21 195 -3 33 -8 71 -10 85 -2 14 -7 54 -10 90 -4
36 -8 76 -10 90 -2 14 -7 54 -10 89 -3 36 -9 69 -12 74 -17 28 31 -12 163
-138z m897 -1592 c-7 -2 -19 -2 -25 0 -7 3 -2 5 12 5 14 0 19 -2 13 -5z"/>
</g>
</svg>
